<svg width="160" height="40" viewBox="0 0 160 40" fill="none" xmlns="http://www.w3.org/2000/svg">
<g clip-path="url(#clip0_444_6153)">
<path d="M3.60927 3.23393L3.91697 3.48827L3.91818 3.89151L3.95118 15.7093C4.12279 14.9669 4.35627 14.2408 4.64908 13.5388C5.78178 10.814 7.61727 8.79739 9.40998 8.0568H8.57642C8.57642 8.0568 11.3362 4.52545 19.2578 5.15349C19.2578 5.15349 22.6053 5.52161 21.974 7.25185C21.974 7.25185 28.2681 7.60971 26.3161 12.1226C26.3765 11.9833 25.2345 11.3438 25.1385 11.2968C24.299 10.8833 23.3374 10.7897 22.4936 11.2486C22.0894 11.4684 21.7282 11.7846 21.4178 12.1556C20.9252 12.7441 20.5613 13.4701 20.3572 14.1665C20.0876 15.0868 20.1332 16.0656 20.3934 16.9821C20.9499 18.9452 22.3552 20.6307 23.9041 21.8806C24.5351 22.3895 25.2162 22.8432 25.9452 23.1935C26.2587 23.3465 26.5835 23.4745 26.9167 23.5762C26.9936 23.5992 27.7689 23.8162 27.7963 23.7436C28.0001 23.2081 28.1692 22.6596 28.3027 22.1016C28.5493 21.0695 28.6752 20.0113 28.6779 18.949L28.7201 3.89151L28.7209 3.48827L29.0286 3.23393C30.0279 2.40753 31.4328 0.172692 31.4822 0.00168891C31.4383 0.154348 30.7209 0.389085 30.5787 0.451578C30.184 0.624657 29.7823 0.781485 29.3752 0.921677C28.4169 1.25449 27.4346 1.51104 26.4372 1.68901C25.5634 1.84465 24.6781 1.92443 23.7911 1.92748C22.5711 1.93194 21.3549 1.78769 20.1688 1.4978C19.4326 1.31747 18.7051 1.09548 17.9986 0.817522C17.6764 0.691885 17.3594 0.552896 17.0483 0.4009C16.9704 0.36235 16.3636 -0.0259809 16.3193 0.0013792C14.6638 1.0249 12.597 1.48318 10.6949 1.74186C8.65061 2.0188 6.57175 1.84673 4.59836 1.23725C3.36085 0.85359 2.16673 0.339029 0.914243 0.000756763C0.914243 0.000756763 0.909354 0.000134325 0.910271 0.00168891C1.18527 0.5377 2.6098 2.40753 3.60927 3.23393Z" fill="white"/>
<path d="M30.2802 3.79507L30.2362 19.5471C30.2298 21.9178 29.6761 24.2564 28.5993 26.3588C27.4733 28.5574 25.5792 31.1687 22.3983 33.5469C21.7648 33.2178 21.1652 32.8251 20.6084 32.375C17.8651 30.1566 16.3599 26.6915 16.5765 23.1493V23.1487C16.6065 22.659 16.6691 22.1675 16.7663 21.6778C16.8503 21.255 16.9597 20.8327 17.0954 20.4142C16.9578 20.7012 16.8324 20.994 16.7195 21.2919C16.6297 21.5275 16.5482 21.7667 16.4751 22.0083C15.2464 26.058 16.4595 30.375 19.3715 33.1691C19.8755 33.6523 20.4243 34.0843 21.0105 34.4594L21.0523 34.4861C20.0248 35.1564 18.8823 35.7994 17.6124 36.3998C16.1648 35.5893 14.8792 34.5101 13.8219 33.2182C10.8363 29.5584 9.99817 24.5204 11.6179 20.0723C11.9273 19.223 12.3211 18.4081 12.7931 17.6403C12.6 17.8765 12.4147 18.1192 12.2376 18.3681C11.6365 19.2122 11.1345 20.1249 10.7419 21.0877C9.43137 24.3026 9.43657 27.8687 10.6365 31.021L10.6368 31.0214C11.2664 32.6768 12.2161 34.1869 13.4299 35.4622C12.6581 35.0323 11.9073 34.5643 11.1801 34.0606C10.9489 33.9063 10.7232 33.7439 10.5033 33.5737C9.72148 32.9679 9.01567 32.2669 8.40163 31.4865C6.76187 29.4111 5.83821 26.8445 5.77292 24.1826C5.7604 23.6899 5.77714 23.197 5.82303 22.7065C6.07756 19.983 7.22706 17.3487 9.2187 15.2991C9.54664 14.9606 9.89394 14.6421 10.2588 14.3453C10.8332 13.8766 11.4485 13.4624 12.0971 13.1078C11.2692 13.4583 10.4827 13.9025 9.7525 14.432L9.75221 14.4323C9.5639 14.5686 9.37947 14.7103 9.19914 14.8573C6.9865 16.6556 5.47464 19.1961 4.93385 22.0245C4.54364 24.0471 4.66263 26.1374 5.27973 28.1006C4.91173 27.5388 4.57351 26.9574 4.26652 26.3588C3.18972 24.2564 2.63605 21.9178 2.62963 19.5471L2.58563 3.79507C0.254834 1.86835 0 0.00226132 0 0.00226132V19.7231C0 23.0689 0.91973 26.3542 2.69228 29.1723C7.38839 36.6382 16.4329 39.9665 16.4329 39.9665C16.4329 39.9665 17.3844 39.6164 18.8303 38.8883C19.5614 38.5202 20.2799 38.1265 20.9842 37.7077C21.9931 37.1093 22.9706 36.458 23.9129 35.7564C24.4191 35.3796 24.9134 34.9863 25.3949 34.5776C27.1345 33.101 28.8319 31.3057 30.1735 29.1723C31.946 26.3542 32.866 23.0689 32.866 19.7231V0.00195312C32.866 0.00195312 32.611 1.86835 30.2802 3.79507Z" fill="white"/>
<path d="M17.5487 7.46659C18.7664 7.46659 19.7536 7.7211 19.7536 8.03505C19.7536 8.34901 18.7664 8.60352 17.5487 8.60352C16.3309 8.60352 15.3438 8.34901 15.3438 8.03505C15.3438 7.7211 16.3309 7.46659 17.5487 7.46659Z" fill="white"/>
</g>
<path d="M43.5547 11.4311V28.0469C44.2733 27.9452 45.4684 27.8506 47.0805 27.7595V11.4311H43.5547Z" fill="white"/>
<path d="M60.749 11.4309V21.6997L53.0867 11.4309H50.4023V27.6016C51.4783 27.5595 52.6549 27.5174 53.9282 27.4754V17.9742L60.8681 27.2931C61.9627 27.2686 63.0983 27.2441 64.2748 27.2231V11.4309H60.749Z" fill="white"/>
<path d="M79.2431 21.1484C78.9527 20.6332 78.3905 20.1356 77.5565 19.6554C77.3183 19.4942 76.9459 19.326 76.4321 19.1507C75.8886 18.944 75.5051 18.8073 75.2854 18.7407L74.0568 18.3587C72.7611 17.9872 71.8601 17.6367 71.35 17.3003C70.8884 16.9638 70.6613 16.5292 70.6613 16C70.6613 15.5024 70.8735 15.0993 71.2979 14.7874C71.7224 14.472 72.2957 14.3178 73.0106 14.3178C74.578 14.3178 75.7173 15.0397 76.4321 16.4802L79.3958 14.8715C78.7852 13.6694 77.9251 12.7372 76.8156 12.0818C75.7099 11.4229 74.4403 11.0935 73.0106 11.0935C71.3761 11.0935 69.9874 11.5526 68.8444 12.4638C67.7051 13.347 67.1354 14.5561 67.1354 16.0982C67.1354 17.6192 67.6976 18.7757 68.822 19.5608C69.723 20.1531 70.9591 20.6753 72.5266 21.1239C73.9711 21.5094 74.9764 21.8669 75.5386 22.2033C76.1008 22.5258 76.3837 22.9814 76.3837 23.5772C76.3837 24.1204 76.1455 24.555 75.6689 24.8739C75.1886 25.1963 74.4738 25.354 73.5206 25.354C71.4766 25.354 70.1065 24.4989 69.4066 22.7816L66.3945 24.4428C66.8301 25.5468 67.5189 26.4545 68.4646 27.1484C71.5585 27.0994 74.8684 27.0573 78.3496 27.0223C79.3883 26.1356 79.9096 24.9685 79.9096 23.5281C79.9096 22.6134 79.6862 21.8213 79.2431 21.1484Z" fill="white"/>
<path d="M80.2422 11.4309V14.6062H85.0451V26.9707C86.203 26.9602 87.3795 26.9532 88.5709 26.9497V14.6062H93.3998V11.4309H80.2422Z" fill="white"/>
<path d="M98.4833 22.1353L100.937 15.2556L103.39 22.1353H98.4833ZM103.107 11.432H98.7402L92.9805 26.9297L96.7632 26.9192L97.3589 25.2369H104.489L105.084 26.9192C106.365 26.9192 107.635 26.9227 108.89 26.9262L103.107 11.432Z" fill="white"/>
<path d="M121.067 11.4313L116.722 24.3706L112.355 11.4313H108.523L114.052 26.9466C115.854 26.9536 117.623 26.9641 119.358 26.9746L124.924 11.4313H121.067Z" fill="white"/>
<path d="M126.637 11.4316V27.0415C127.836 27.052 129.012 27.0661 130.163 27.0801V11.4316H126.637Z" fill="white"/>
<path d="M142.554 24.5968C142.159 24.9753 141.668 25.1611 141.072 25.1611H137.01V21.1938H141.072C141.668 21.1938 142.159 21.383 142.554 21.758C142.945 22.1365 143.139 22.6062 143.139 23.1669C143.139 23.7452 142.945 24.2218 142.554 24.5968ZM137.01 14.5349H140.536C141.094 14.5349 141.556 14.7101 141.914 15.0606C142.271 15.4145 142.45 15.8561 142.45 16.3853C142.45 16.9145 142.267 17.3561 141.902 17.7066C141.534 18.0606 141.08 18.2358 140.536 18.2358H137.01V14.5349ZM144.289 19.536C145.413 18.6844 145.976 17.5629 145.976 16.168C145.976 14.8047 145.447 13.6762 144.393 12.779C143.336 11.8783 142.051 11.4297 140.536 11.4297H133.484V27.1272C137.49 27.1833 141.173 27.2534 144.445 27.334C144.646 27.2008 144.844 27.0536 145.03 26.8959C146.102 25.9812 146.638 24.8106 146.638 23.3842C146.638 21.6669 145.856 20.3842 144.289 19.536Z" fill="white"/>
<path d="M152.463 25.0924V21.3179H159.232V18.1917H152.463V14.6064H159.872V11.4311H148.938V27.4546C154.53 27.6263 158.413 27.8261 159.999 28.0469V25.0924H152.463Z" fill="white"/>
<defs>
<clipPath id="clip0_444_6153">
<rect width="32.8891" height="40" fill="white"/>
</clipPath>
</defs>
</svg>
