<svg width="48" height="48" viewBox="0 0 48 48" fill="none" xmlns="http://www.w3.org/2000/svg">
<path d="M27.6704 6.10564L36.5732 7.4386C41.333 8.15082 43.7906 11.9532 43.0784 16.7071L41.1598 29.5348C40.4476 34.2888 36.9858 37.2058 32.224 36.4936L23.3232 35.1606C18.5635 34.4484 16.1057 30.6478 16.816 25.892L18.7366 13.0643C19.4469 8.31039 22.9244 5.39732 27.6704 6.10564Z" stroke="white" stroke-width="3" stroke-linecap="round" stroke-linejoin="round"/>
<path opacity="0.4" d="M26.6763 17.7031L35.6665 18.9913M25.6445 24.8944L31.0385 25.6688" stroke="white" stroke-width="3" stroke-linecap="round" stroke-linejoin="round"/>
<path opacity="0.4" d="M19.036 11.75L13.3149 13.6395C8.73803 15.1457 6.93997 19.3061 8.46559 23.883L12.5151 36.197C14.0232 40.7562 17.9287 43.0446 22.4862 41.5386L31.06 38.7228C32.496 38.2694 33.6928 37.5066 34.5646 36.5432" stroke="white" stroke-width="3" stroke-linecap="round" stroke-linejoin="round"/>
</svg>
