<svg width="750" height="734" viewBox="0 0 750 734" fill="none" xmlns="http://www.w3.org/2000/svg">
<path d="M187.955 840.746C204.062 791.85 177.484 739.134 128.588 723.001C79.697 706.867 27.0011 733.426 10.8941 782.321C-5.21051 831.218 21.3675 883.934 70.2625 900.068C119.155 916.2 171.85 889.642 187.955 840.746Z" stroke="#3A3F42" stroke-width="0.3"/>
<path d="M225.571 863.101C276.999 805.379 271.886 716.866 214.15 665.401C156.416 613.932 67.9215 619.005 16.4939 676.727C-34.9349 734.446 -29.8206 822.961 27.9149 874.428C85.6481 925.893 174.144 920.823 225.571 863.101Z" stroke="#3A3F42" stroke-width="0.3"/>
<path d="M329.08 717.765C323.132 614.758 234.821 536.038 131.838 541.939C28.8533 547.839 -49.8072 636.129 -43.8586 739.134C-37.9077 842.142 50.3998 920.861 153.385 914.961C256.368 909.059 335.031 820.771 329.08 717.765Z" stroke="#3A3F42" stroke-width="0.3"/>
<path d="M397.36 673.551C389.92 544.741 279.493 446.305 150.714 453.685C21.9344 461.064 -76.4312 571.465 -68.9899 700.272C-61.5491 829.08 48.8778 927.517 177.657 920.138C306.436 912.759 404.801 802.358 397.36 673.551Z" stroke="#3A3F42" stroke-width="0.3"/>
<path d="M395.23 832.041C498.281 716.378 488.037 539.015 372.348 435.887C256.659 332.759 79.3344 342.919 -23.7168 458.582C-126.769 574.244 -116.524 751.608 -0.834449 854.735C114.855 957.863 292.179 947.702 395.23 832.041Z" stroke="#3A3F42" stroke-width="0.3"/>
<path d="M451.736 821.643C571.973 686.692 560.021 479.748 425.038 359.423C290.054 239.094 83.1568 250.951 -37.0803 385.903C-157.316 520.851 -145.364 727.795 -10.3792 848.123C124.603 968.449 331.5 956.593 451.736 821.643Z" stroke="#3A3F42" stroke-width="0.3"/>
<path d="M621.382 790.328C793.177 597.51 776.097 301.829 583.232 129.907C390.37 -42.0165 94.7532 -25.0763 -77.0421 167.742C-248.837 360.56 -231.757 656.241 -38.8924 828.164C153.97 1000.09 449.587 983.146 621.382 790.328Z" stroke="#3A3F42" stroke-width="0.3"/>
<path d="M508.36 811.116C645.785 656.877 632.122 420.354 477.844 282.828C323.567 145.304 87.0989 158.852 -50.3244 313.092C-187.748 467.332 -174.085 703.856 -19.8093 841.381C134.469 978.907 370.937 965.356 508.36 811.116Z" stroke="#3A3F42" stroke-width="0.3"/>
<path d="M564.868 800.731C719.477 627.201 704.106 361.101 530.534 206.375C356.965 51.6514 90.9228 66.8955 -63.6865 240.425C-218.296 413.954 -202.925 680.057 -29.3549 834.781C144.217 989.506 410.259 974.261 564.868 800.731Z" stroke="#3A3F42" stroke-width="0.3"/>
<path d="M26.0562 742.47C60.2973 704.037 56.8939 645.102 18.4533 610.837C-19.9885 576.568 -78.9102 579.944 -113.152 618.377C-147.393 656.81 -143.989 715.744 -105.549 750.01C-67.1068 784.278 -8.18468 780.902 26.0562 742.47Z" stroke="#3A3F42" stroke-width="0.3"/>
<path d="M100.47 748.497C151.897 690.774 146.785 602.262 89.0505 550.794C31.3146 499.328 -57.1797 504.4 -108.607 562.12C-160.035 619.842 -154.922 708.356 -97.1885 759.821C-39.4529 811.288 49.0407 806.217 100.47 748.497Z" stroke="#3A3F42" stroke-width="0.3"/>
<path d="M174.87 754.526C243.486 677.516 236.664 559.421 159.635 490.756C82.6062 422.091 -35.461 428.857 -104.075 505.868C-172.69 582.879 -165.868 700.971 -88.8395 769.636C-11.8106 838.301 106.257 831.536 174.87 754.526Z" stroke="#3A3F42" stroke-width="0.3"/>
<path d="M249.264 760.567C335.064 664.266 326.534 516.592 230.211 430.729C133.89 344.865 -13.7499 353.324 -99.5503 449.624C-185.351 545.924 -176.821 693.597 -80.4985 779.461C15.8238 865.325 163.463 856.864 249.264 760.567Z" stroke="#3A3F42" stroke-width="0.3"/>
<path d="M323.787 766.461C426.838 650.799 416.591 473.434 300.902 370.306C185.213 267.178 7.88812 277.341 -95.1619 393.001C-198.213 508.663 -187.969 686.028 -72.278 789.156C43.4111 892.284 220.733 882.122 323.787 766.461Z" stroke="#3A3F42" stroke-width="0.3"/>
<path d="M398.191 772.489C518.428 637.537 506.475 430.596 371.49 310.267C236.508 189.94 29.6107 201.796 -90.6267 336.747C-210.864 471.699 -198.91 678.641 -63.9275 798.967C71.0574 919.295 277.954 907.439 398.191 772.489Z" stroke="#3A3F42" stroke-width="0.3"/>
<path d="M472.588 778.524C610.012 624.283 596.349 387.76 442.073 250.236C287.794 112.71 51.3243 126.261 -86.0989 280.501C-223.522 434.741 -209.859 671.263 -55.5833 808.787C98.695 946.314 335.165 932.764 472.588 778.524Z" stroke="#3A3F42" stroke-width="0.3"/>
<path d="M546.993 784.551C701.602 611.022 686.231 344.919 512.659 190.196C339.09 35.4718 73.0469 50.7157 -81.5621 224.245C-236.171 397.774 -220.8 663.876 -47.2298 818.6C126.342 973.325 392.384 958.08 546.993 784.551Z" stroke="#3A3F42" stroke-width="0.3"/>
<path d="M621.382 790.328C793.177 597.51 776.097 301.829 583.232 129.907C390.37 -42.0165 94.7532 -25.0763 -77.0421 167.742C-248.837 360.56 -231.757 656.241 -38.8924 828.164C153.97 1000.09 449.587 983.146 621.382 790.328Z" stroke="#3A3F42" stroke-width="0.3"/>
</svg>
