<svg width="64" height="64" viewBox="0 0 64 64" fill="none" xmlns="http://www.w3.org/2000/svg">
<path d="M52.4953 27.4632V23.9972C52.4953 22.5858 51.9505 21.229 50.9723 20.2119L40.8619 9.68125C39.8318 8.60717 38.4075 8.00007 36.9209 8.00007H21.8501C16.4096 7.9793 11.9524 12.3146 11.8227 17.7524V45.7693C11.7033 51.2955 16.0827 55.8747 21.6088 55.9941C21.6892 55.9965 32.2822 55.9965 32.2822 55.9965" stroke="#ACB6BE" stroke-width="4" stroke-linecap="round" stroke-linejoin="round"/>
<path opacity="0.4" d="M38.2109 8.16602V15.8792C38.2085 19.6437 41.2568 22.6999 45.0213 22.7077H52.3245" stroke="#ACB6BE" stroke-width="4" stroke-linecap="round" stroke-linejoin="round"/>
<path fill-rule="evenodd" clip-rule="evenodd" d="M53.0693 36.4464C53.4949 37.5152 53.2328 38.7346 52.405 39.5338C52.405 39.5338 51.1053 40.5093 50.9005 40.9917C50.6384 41.6066 50.6021 43.0621 50.9005 43.6589C51.2013 44.2635 53.0616 45.2803 53.0616 45.2803C54.1874 46.1235 54.849 47.4517 54.849 48.8581C54.849 49.8544 54.0421 50.6637 53.0458 50.6637H40.7512C39.7549 50.6637 38.9453 49.8544 38.9453 48.8581C38.9453 47.4517 39.6096 46.1235 40.7354 45.2803C40.7354 45.2803 42.593 44.2635 42.8965 43.6589C43.1949 43.0621 43.156 41.6066 42.8965 40.9917C42.6917 40.5093 41.3893 39.5338 41.3893 39.5338C40.5642 38.7346 40.3021 37.5152 40.725 36.4464C41.1557 35.3645 42.2013 34.6562 43.3637 34.6562H50.4309C51.593 34.6562 52.6386 35.3645 53.0693 36.4464Z" stroke="#ACB6BE" stroke-width="4" stroke-linecap="round" stroke-linejoin="round"/>
<path d="M46.8984 50.666V56.0028" stroke="#ACB6BE" stroke-width="4" stroke-linecap="round" stroke-linejoin="round"/>
<path opacity="0.4" d="M30.6688 37.6238H23.2903M27.2558 26.6152H23.2891" stroke="#ACB6BE" stroke-width="4" stroke-linecap="round" stroke-linejoin="round"/>
</svg>
