<svg width="1198" height="303" viewBox="0 0 1198 303" fill="none" xmlns="http://www.w3.org/2000/svg">
<g opacity="0.6">
<mask id="mask0_559_3794" style="mask-type:alpha" maskUnits="userSpaceOnUse" x="0" y="0" width="1198" height="303">
<rect x="0.5" y="0.5" width="1197" height="302" fill="#1A1D1E" stroke="#3A3F42"/>
</mask>
<g mask="url(#mask0_559_3794)">
<mask id="mask1_559_3794" style="mask-type:alpha" maskUnits="userSpaceOnUse" x="-358" y="-1034" width="2243" height="2243">
<rect x="2.98023e-08" y="0.707107" width="1601.8" height="1565.95" transform="matrix(-0.707107 0.707107 0.707107 0.707107 775.531 -1032.83)" fill="#D9D9D9" stroke="#3A3F42"/>
</mask>
<g mask="url(#mask1_559_3794)">
<path d="M23.9155 305.212C66.1491 293.417 91.0883 249.032 79.6193 206.07C68.1507 163.108 24.6162 137.839 -17.6174 149.633C-59.8504 161.428 -84.7899 205.818 -73.3208 248.78C-61.852 291.737 -18.3176 317.006 23.9155 305.212Z" stroke="#3A3F42" stroke-width="0.3"/>
<path d="M124.196 374.997C208.986 351.321 259.055 262.209 236.028 175.955C213.005 89.7065 125.602 38.9764 40.8132 62.6525C-43.9755 86.3338 -94.045 175.446 -71.019 261.7C-47.9938 347.948 39.4074 398.679 124.196 374.997Z" stroke="#3A3F42" stroke-width="0.3"/>
<path d="M127.657 450.992C258.248 469.942 379.494 377.494 398.467 244.497C417.446 111.5 326.962 -11.6762 196.37 -30.6261C65.7817 -49.5814 -55.4651 42.8717 -74.4405 175.868C-93.4157 308.86 -2.93354 432.042 127.657 450.992Z" stroke="#3A3F42" stroke-width="0.3"/>
<path d="M431.932 461.207C573.034 353.622 602.054 150.196 496.758 6.85171C391.462 -136.498 191.715 -165.482 50.6162 -57.8974C-90.4833 49.6922 -119.507 253.113 -14.2096 396.463C91.0877 539.808 290.835 568.796 431.932 461.207Z" stroke="#3A3F42" stroke-width="0.3"/>
<path d="M559.052 517.613C735.497 383.075 771.789 128.702 640.116 -50.5494C508.444 -229.801 258.667 -266.051 82.2274 -131.514C-94.214 3.02266 -130.507 257.396 1.16439 436.648C132.836 615.899 382.613 652.149 559.052 517.613Z" stroke="#3A3F42" stroke-width="0.3"/>
<path d="M331.239 666.904C592.917 704.879 835.872 519.628 873.895 253.133C911.918 -13.3623 730.612 -260.187 468.934 -298.162C207.256 -336.139 -35.6986 -150.886 -73.721 115.609C-111.743 382.104 69.5639 628.929 331.239 666.904Z" stroke="#3A3F42" stroke-width="0.3"/>
<path d="M399.12 738.769C704.438 783.077 987.913 566.933 1032.27 255.994C1076.64 -54.9495 865.093 -342.934 559.775 -387.243C254.462 -431.552 -29.0128 -215.407 -73.376 95.5364C-117.74 406.475 93.805 694.46 399.12 738.769Z" stroke="#3A3F42" stroke-width="0.3"/>
<path d="M603.056 954.417C1039.29 1017.73 1444.32 708.895 1507.7 264.622C1571.09 -179.646 1268.84 -591.124 832.598 -654.433C396.36 -717.742 -8.66551 -408.91 -72.0523 35.3629C-135.439 479.631 166.819 891.108 603.056 954.417Z" stroke="#3A3F42" stroke-width="0.3"/>
<path d="M467.401 810.748C816.322 861.455 1140.24 614.428 1190.88 259.002C1241.53 -96.4185 999.739 -425.648 650.818 -476.35C301.898 -527.051 -22.0188 -280.025 -72.6678 75.3961C-123.316 430.822 118.481 760.047 467.401 810.748Z" stroke="#3A3F42" stroke-width="0.3"/>
<path d="M535.274 882.63C927.831 939.672 1292.25 661.754 1349.24 261.88C1406.22 -137.989 1134.18 -508.392 741.627 -565.434C349.071 -622.477 -15.3549 -344.559 -72.3378 55.3134C-129.321 455.187 142.716 825.588 535.274 882.63Z" stroke="#3A3F42" stroke-width="0.3"/>
<path d="M111.426 46.0257C198.367 58.6571 279.078 -2.89318 291.696 -91.4509C304.317 -180.014 244.07 -262.05 157.127 -274.681C70.1865 -287.313 -10.5233 -225.762 -23.144 -137.205C-35.7639 -48.6416 24.4851 33.3942 111.426 46.0257Z" stroke="#3A3F42" stroke-width="0.3"/>
<path d="M172.829 159.62C303.408 178.593 424.625 86.1508 443.583 -46.8604C462.536 -179.871 372.046 -303.078 241.472 -322.053C110.894 -341.026 -10.3247 -248.58 -29.2789 -115.575C-48.2333 17.4365 42.2544 140.643 172.829 159.62Z" stroke="#3A3F42" stroke-width="0.3"/>
<path d="M234.22 273.204C408.434 298.522 570.162 175.184 595.451 -2.27552C620.74 -179.735 500.012 -344.115 325.798 -369.43C151.584 -394.745 -10.1411 -271.409 -35.4296 -93.9502C-60.718 83.509 60.0091 247.891 234.22 273.204Z" stroke="#3A3F42" stroke-width="0.3"/>
<path d="M295.582 386.787C513.431 418.441 715.671 264.211 747.29 42.3035C778.915 -179.604 627.95 -385.158 410.101 -416.814C192.252 -448.469 -9.98508 -294.239 -41.6076 -72.3319C-73.23 149.575 77.7357 355.128 295.582 386.787Z" stroke="#3A3F42" stroke-width="0.3"/>
<path d="M357.282 500.424C618.932 538.444 861.83 353.201 899.811 86.6762C937.792 -179.848 756.47 -426.73 494.824 -464.751C233.174 -502.771 -9.72575 -317.531 -47.706 -51.0036C-85.6865 215.521 95.6328 462.4 357.282 500.424Z" stroke="#3A3F42" stroke-width="0.3"/>
<path d="M418.675 614.007C723.961 658.367 1007.37 442.237 1051.68 131.26C1096 -179.713 884.439 -467.769 579.153 -512.13C273.867 -556.491 -9.53837 -340.358 -53.8529 -29.386C-98.1676 281.592 113.391 569.646 418.675 614.007Z" stroke="#3A3F42" stroke-width="0.3"/>
<path d="M480.055 727.598C828.976 778.299 1152.89 531.273 1203.54 175.852C1254.19 -179.574 1012.39 -508.802 663.467 -559.504C314.546 -610.205 -9.36685 -363.181 -60.0153 -7.75933C-110.664 347.666 131.134 676.897 480.055 727.598Z" stroke="#3A3F42" stroke-width="0.3"/>
<path d="M541.448 841.179C934.004 898.221 1298.43 620.303 1355.41 220.429C1412.39 -179.44 1140.36 -549.843 747.801 -606.885C355.245 -663.928 -9.17917 -386.01 -66.162 13.8622C-123.145 413.736 148.892 784.137 541.448 841.179Z" stroke="#3A3F42" stroke-width="0.3"/>
<path d="M603.183 954.507C1039.37 1017.89 1444.31 709.081 1507.62 264.759C1570.94 -179.559 1268.66 -591.135 832.471 -654.519C396.28 -717.901 -8.65222 -409.091 -71.969 35.2312C-135.286 479.548 166.992 891.125 603.183 954.507Z" stroke="#3A3F42" stroke-width="0.3"/>
</g>
</g>
</g>
</svg>
