<svg width="760" height="743" viewBox="0 0 760 743" fill="none" xmlns="http://www.w3.org/2000/svg">
<mask id="mask0_559_3736" style="mask-type:alpha" maskUnits="userSpaceOnUse" x="0" y="0" width="760" height="743">
<rect width="760" height="743" transform="matrix(1 0 0 -1 0 743)" fill="#D9D9D9"/>
</mask>
<g mask="url(#mask0_559_3736)">
<path d="M664.815 597.079C646.795 586.579 623.866 592.937 613.6 611.283C603.333 629.628 609.618 653.013 627.638 663.513C645.657 674.013 668.588 667.653 678.854 649.308C689.119 630.965 682.834 607.58 664.815 597.079Z" stroke="#3A3F42" stroke-width="0.3"/>
<path d="M654.11 539.358C617.933 518.276 571.899 531.042 551.288 567.874C530.677 604.702 543.295 651.651 579.471 672.733C615.648 693.813 661.683 681.047 682.294 644.216C702.904 607.387 690.287 560.438 654.11 539.358Z" stroke="#3A3F42" stroke-width="0.3"/>
<path d="M677.878 512.7C640.358 461.632 569.387 451.15 519.358 489.29C469.327 527.428 459.186 599.746 496.707 650.815C534.224 701.884 605.197 712.365 655.227 674.225C705.255 636.087 715.398 563.768 677.878 512.7Z" stroke="#3A3F42" stroke-width="0.3"/>
<path d="M579.281 405.134C496.688 392.934 420.166 451.272 408.364 535.429C396.56 619.588 453.95 697.7 536.542 709.899C619.135 722.096 695.657 663.761 707.46 579.602C719.262 495.444 661.874 417.33 579.281 405.134Z" stroke="#3A3F42" stroke-width="0.3"/>
<path d="M555.195 342.716C451.913 327.462 356.225 400.409 341.467 505.648C326.709 610.886 398.47 708.565 501.75 723.817C605.031 739.07 700.72 666.123 715.478 560.885C730.236 455.646 658.475 357.968 555.195 342.716Z" stroke="#3A3F42" stroke-width="0.3"/>
<path d="M680.5 370.635C605.318 268.304 463.105 247.3 362.856 323.723C262.607 400.146 242.285 545.055 317.466 647.387C392.647 749.72 534.861 770.723 635.11 694.3C735.359 617.877 755.681 472.967 680.5 370.635Z" stroke="#3A3F42" stroke-width="0.3"/>
<path d="M681.332 323.31C593.613 203.912 427.681 179.404 310.715 268.573C193.746 357.743 170.036 526.819 257.756 646.217C345.473 765.613 511.405 790.121 628.373 700.951C745.34 611.783 769.05 442.707 681.332 323.31Z" stroke="#3A3F42" stroke-width="0.3"/>
<path d="M683.749 181.211C558.416 10.6149 321.333 -24.3991 154.21 103.006C-12.9138 230.408 -46.791 471.987 78.542 642.583C203.875 813.179 440.958 848.192 608.082 720.788C775.205 593.385 809.082 351.806 683.749 181.211Z" stroke="#3A3F42" stroke-width="0.3"/>
<path d="M682.275 275.562C582.184 139.207 392.581 111.425 258.786 213.508C124.992 315.589 97.6697 508.878 197.762 645.232C297.854 781.585 487.458 809.368 621.252 707.287C755.047 605.203 782.367 411.915 682.275 275.562Z" stroke="#3A3F42" stroke-width="0.3"/>
<path d="M683.14 228.201C570.53 74.7958 357.217 43.5396 206.689 158.388C56.1627 273.235 25.4244 490.698 138.034 644.104C250.644 797.51 463.959 828.767 614.485 713.919C765.013 599.07 795.75 381.608 683.14 228.201Z" stroke="#3A3F42" stroke-width="0.3"/>
<path d="M533.277 712.58C520.542 695.9 496.949 692.908 480.583 705.897C464.217 718.887 461.274 742.937 474.012 759.616C486.747 776.295 510.338 779.287 526.705 766.297C543.071 753.307 546.013 729.258 533.277 712.58Z" stroke="#3A3F42" stroke-width="0.3"/>
<path d="M550.259 653.992C525.318 620.018 478.075 613.094 444.739 638.53C411.4 663.966 404.592 712.128 429.533 746.104C454.474 780.078 501.717 787.001 535.054 761.566C568.392 736.13 575.2 687.967 550.259 653.992Z" stroke="#3A3F42" stroke-width="0.3"/>
<path d="M567.009 594.858C529.55 543.831 458.596 533.433 408.525 571.635C358.455 609.838 348.232 682.173 385.688 733.2C423.146 784.228 494.102 794.624 544.17 756.423C594.241 718.221 604.465 645.886 567.009 594.858Z" stroke="#3A3F42" stroke-width="0.3"/>
<path d="M583.764 535.731C533.789 467.649 439.122 453.778 372.319 504.747C305.517 555.715 291.876 652.223 341.852 720.303C391.827 788.384 486.492 802.255 553.295 751.286C620.097 700.318 633.739 603.809 583.764 535.731Z" stroke="#3A3F42" stroke-width="0.3"/>
<path d="M600.524 476.614C538.031 391.482 419.651 374.135 336.118 437.87C252.583 501.604 235.525 622.285 298.017 707.417C360.51 792.549 478.889 809.896 562.423 746.161C645.957 682.426 663.015 561.746 600.524 476.614Z" stroke="#3A3F42" stroke-width="0.3"/>
<path d="M617.187 417.365C542.129 315.116 399.948 294.283 299.618 370.832C199.288 447.381 178.802 592.327 253.858 694.575C328.915 796.824 471.095 817.658 571.426 741.108C671.756 664.558 692.242 519.615 617.187 417.365Z" stroke="#3A3F42" stroke-width="0.3"/>
<path d="M633.934 358.239C546.359 238.938 380.469 214.63 263.405 303.946C146.342 393.261 122.439 562.379 210.014 681.68C297.589 800.982 463.48 825.289 580.541 735.974C697.605 646.657 721.509 477.54 633.934 358.239Z" stroke="#3A3F42" stroke-width="0.3"/>
<path d="M650.694 299.115C550.601 162.761 360.998 134.979 227.205 237.061C93.4094 339.144 66.0887 532.434 166.181 668.788C266.274 805.141 455.875 832.923 589.669 730.842C723.465 628.759 750.786 435.468 650.694 299.115Z" stroke="#3A3F42" stroke-width="0.3"/>
<path d="M667.445 239.989C554.835 86.5837 341.52 55.3259 190.994 170.176C40.4681 285.023 9.72965 502.486 122.339 655.892C234.949 809.297 448.263 840.554 598.79 725.706C749.318 610.857 780.055 393.395 667.445 239.989Z" stroke="#3A3F42" stroke-width="0.3"/>
<path d="M683.993 180.83C558.866 10.3724 321.841 -24.3593 154.582 103.256C-12.677 230.869 -46.8311 472.506 78.2957 642.964C203.423 813.421 440.448 848.153 607.708 720.538C774.966 592.924 809.12 351.288 683.993 180.83Z" stroke="#3A3F42" stroke-width="0.3"/>
</g>
</svg>
