<svg width="64" height="64" viewBox="0 0 64 64" fill="none" xmlns="http://www.w3.org/2000/svg">
<path d="M26.7336 21.0509C26.7336 25.4047 23.0466 28.9333 18.8511 28.9333C14.6556 28.9333 10.3563 25.2853 10.9687 21.0509C11.293 18.8118 12.3516 15.2857 13.2753 12.4653C14.1523 9.79805 16.6379 8 19.4453 8H49.6934C52.4878 8 54.9656 9.78251 55.8528 12.4316C56.7974 15.2597 57.8792 18.8014 58.2062 21.0509C58.816 25.2853 54.5166 28.9333 50.3238 28.9333C46.1283 28.9333 42.4414 25.4047 42.4414 21.0509" stroke="#ACB6BE" stroke-width="4" stroke-linecap="round" stroke-linejoin="round"/>
<path d="M26.707 18.583V21.0479C26.707 25.4016 30.2358 28.9303 34.5894 28.9303C38.9433 28.9303 42.4718 25.4016 42.4718 21.0479V18.583" stroke="#ACB6BE" stroke-width="4" stroke-linecap="round" stroke-linejoin="round"/>
<path d="M13.4258 27.0628V48.3361C13.4465 52.586 16.9103 56.0161 21.1629 55.9953H48.0067C52.2592 56.0212 55.7256 52.5937 55.7518 48.3412V48.3361V27.042" stroke="#ACB6BE" stroke-width="4" stroke-linecap="round" stroke-linejoin="round"/>
<path opacity="0.4" d="M46.418 36.3704V36.3438" stroke="#ACB6BE" stroke-width="4" stroke-linecap="round" stroke-linejoin="round"/>
<path opacity="0.4" d="M27.707 55.9628V46.2356C27.707 42.4342 30.787 39.3545 34.5881 39.3545C38.3892 39.3545 41.4716 42.4342 41.4716 46.2356V55.9628" stroke="#ACB6BE" stroke-width="4" stroke-linecap="round" stroke-linejoin="round"/>
</svg>
