<svg width="64" height="64" viewBox="0 0 64 64" fill="none" xmlns="http://www.w3.org/2000/svg">
<path fill-rule="evenodd" clip-rule="evenodd" d="M18.5932 43.0857C23.6603 41.7806 31.6878 40.2006 41.2771 39.9958C45.3038 39.9075 47.9656 35.7953 46.2974 32.1291L39.2014 16.531C36.6459 10.9139 31.7966 10.2211 29.0827 13.2022C22.6225 20.3008 16.1492 25.316 11.8371 28.2763C9.05062 30.1883 8.74705 33.5225 10.1481 36.5995L11.1911 38.8955C12.5947 41.9806 15.3112 43.9315 18.5932 43.0857Z" stroke="#ACB6BE" stroke-width="4" stroke-linecap="round" stroke-linejoin="round"/>
<path opacity="0.4" d="M31.4368 40.6748L35.012 48.5257C36.0421 50.7935 35.0432 53.5073 32.7365 54.5556C30.4509 55.5959 27.7475 54.5684 26.7147 52.2983L22.1406 42.2471" stroke="#ACB6BE" stroke-width="4" stroke-linecap="round" stroke-linejoin="round"/>
<path opacity="0.4" d="M16.0352 25.2998L19.5741 33.0809" stroke="#ACB6BE" stroke-width="4" stroke-linecap="round" stroke-linejoin="round"/>
<path opacity="0.4" d="M55.7402 28.8711C57.6551 25.244 57.9274 20.8022 56.0983 16.7807C54.2226 12.6581 50.5642 9.91048 46.4492 9.03613" stroke="#ACB6BE" stroke-width="4" stroke-linecap="round" stroke-linejoin="round"/>
<path opacity="0.4" d="M49.81 25.9522C50.5729 24.0582 50.5884 21.8685 49.6777 19.8629C48.7905 17.917 47.1974 16.5134 45.3398 15.8232" stroke="#ACB6BE" stroke-width="4" stroke-linecap="round" stroke-linejoin="round"/>
</svg>
