<svg width="64" height="64" viewBox="0 0 64 64" fill="none" xmlns="http://www.w3.org/2000/svg">
<path d="M24.9312 53.5035H40.8923C45.495 53.5035 49.2259 49.7728 49.2259 45.1728V18.8335C49.2259 14.2309 45.495 10.5 40.8923 10.5H24.9312C20.3285 10.5 16.5977 14.2309 16.5977 18.8335V45.1728C16.5977 49.7728 20.3285 53.5035 24.9312 53.5035Z" stroke="#ACB6BE" stroke-width="4" stroke-linecap="round" stroke-linejoin="round"/>
<path opacity="0.4" d="M16.5988 45.9144H15.1304C11.6797 45.9144 8.89062 43.1019 8.89062 39.6512V24.3594C8.89062 20.8854 11.6797 18.0938 15.1304 18.0938H16.5988" stroke="#ACB6BE" stroke-width="4" stroke-linecap="round" stroke-linejoin="round"/>
<path opacity="0.4" d="M49.1836 45.9144H50.6519C54.1025 45.9144 56.8916 43.1019 56.8916 39.6512V24.3594C56.8916 20.8854 54.1025 18.0938 50.6519 18.0938H49.1836" stroke="#ACB6BE" stroke-width="4" stroke-linecap="round" stroke-linejoin="round"/>
<path fill-rule="evenodd" clip-rule="evenodd" d="M38.3768 34.3395C36.7216 35.8366 34.6563 37.1857 32.3808 38.1017C30.4454 38.8643 28.824 37.9121 28.5851 36.0051C28.2971 33.1929 28.3024 30.4998 28.5851 27.9857C28.8446 26.0035 30.6323 25.1629 32.3808 25.8997C34.62 26.8155 36.6307 28.0609 38.3768 29.6617C39.8686 31.0134 39.9048 32.9334 38.3768 34.3395Z" stroke="#ACB6BE" stroke-width="4" stroke-linecap="round" stroke-linejoin="round"/>
</svg>
