<svg width="64" height="64" viewBox="0 0 64 64" fill="none" xmlns="http://www.w3.org/2000/svg">
<path opacity="0.4" fill-rule="evenodd" clip-rule="evenodd" d="M51.1752 10.0986C54.5378 10.0986 57.2605 12.824 57.2605 16.1866C57.2605 19.5466 54.5378 22.272 51.1752 22.272C47.8125 22.272 45.0898 19.5466 45.0898 16.1866C45.0898 12.824 47.8125 10.0986 51.1752 10.0986Z" stroke="#ACB6BE" stroke-width="4" stroke-linecap="round" stroke-linejoin="round"/>
<path d="M55.7128 30.4534C55.9821 42.0641 46.7741 49.7387 35.6301 51.0747C34.9208 51.1601 34.3768 51.7387 34.3768 52.4561V56.5174C34.3768 57.4347 33.5048 58.1387 32.6221 57.8881C20.9582 54.5787 10.4249 43.8987 11.0329 30.9494C11.6489 17.7654 22.3876 7.22406 35.9875 8.75206C36.6328 8.82673 37.2675 8.9254 37.8968 9.05606" stroke="#ACB6BE" stroke-width="4" stroke-linecap="round" stroke-linejoin="round"/>
<path opacity="0.4" d="M39.564 31.6093V31.7954M40.3181 31.6493C40.3181 32.0682 39.9784 32.408 39.5592 32.408C39.1402 32.408 38.8008 32.0682 38.8008 31.6493C38.8008 31.2304 39.1402 30.8906 39.5592 30.8906C39.9784 30.8906 40.3181 31.2304 40.3181 31.6493Z" stroke="#ACB6BE" stroke-width="4" stroke-linecap="round" stroke-linejoin="round"/>
<path opacity="0.4" d="M27.1654 31.6093V31.7954M27.9198 31.6493C27.9198 32.0682 27.5798 32.408 27.1608 32.408C26.7419 32.408 26.4023 32.0682 26.4023 31.6493C26.4023 31.2304 26.7419 30.8906 27.1608 30.8906C27.5798 30.8906 27.9198 31.2304 27.9198 31.6493Z" stroke="#ACB6BE" stroke-width="4" stroke-linecap="round" stroke-linejoin="round"/>
</svg>
