<svg width="64" height="64" viewBox="0 0 64 64" fill="none" xmlns="http://www.w3.org/2000/svg">
<path d="M23.7336 21.0509C23.7336 25.4047 20.0466 28.9333 15.8511 28.9333C11.6556 28.9333 7.35634 25.2853 7.96869 21.0509C8.29301 18.8118 9.3516 15.2857 10.2753 12.4653C11.1523 9.79805 13.6379 8 16.4453 8H46.6934C49.4878 8 51.9656 9.78251 52.8528 12.4316C53.7974 15.2597 54.8792 18.8014 55.2062 21.0509C55.816 25.2853 51.5166 28.9333 47.3238 28.9333C43.1283 28.9333 39.4414 25.4047 39.4414 21.0509" stroke="#C3FF51" stroke-width="4" stroke-linecap="round" stroke-linejoin="round"/>
<path d="M23.707 18.584V21.0489C23.707 25.4026 27.2358 28.9313 31.5894 28.9313C35.9433 28.9313 39.4718 25.4026 39.4718 21.0489V18.584" stroke="#C3FF51" stroke-width="4" stroke-linecap="round" stroke-linejoin="round"/>
<path d="M10.4258 27.0618V48.3351C10.4465 52.585 13.9103 56.0152 18.1629 55.9944H45.0067C49.2592 56.0202 52.7256 52.5927 52.7518 48.3402V48.3351V27.041" stroke="#C3FF51" stroke-width="4" stroke-linecap="round" stroke-linejoin="round"/>
<path opacity="0.4" d="M43.418 36.3704V36.3438" stroke="#C3FF51" stroke-width="4" stroke-linecap="round" stroke-linejoin="round"/>
<path opacity="0.4" d="M24.707 55.9618V46.2346C24.707 42.4332 27.787 39.3535 31.5881 39.3535C35.3892 39.3535 38.4716 42.4332 38.4716 46.2346V55.9618" stroke="#C3FF51" stroke-width="4" stroke-linecap="round" stroke-linejoin="round"/>
</svg>
