<svg width="48" height="48" viewBox="0 0 48 48" fill="none" xmlns="http://www.w3.org/2000/svg">
<g opacity="0.4">
<path d="M31.3745 38.6289C29.3925 39.6709 28.7793 43.0017 28.7793 43.0017" stroke="white" stroke-width="3" stroke-linecap="round"/>
<path d="M24.0215 5.0069C27.7745 4.92338 31.3371 5.57846 34.2707 8.05266C38.0367 11.2289 40.2395 15.115 39.0989 20.2826C38.4909 23.0372 40.5021 26.166 41.9271 28.0802C42.5545 28.923 42.2383 30.052 41.2579 30.43L39.4029 31.1454C38.8677 31.3518 38.4769 31.8196 38.3687 32.3828L37.7481 37.6692C37.5423 39.041 36.3761 39.6928 35.0729 39.4184L29.5039 38.1628C27.6829 37.7614 27.7627 36.1142 27.2871 34.3904" stroke="white" stroke-width="3" stroke-linecap="round"/>
<path d="M9.61719 25.7266C12.5276 30.936 13.8719 36.8616 11.3867 42.5292" stroke="white" stroke-width="3" stroke-linecap="round"/>
</g>
<path d="M13.1367 20.464C14.3304 21.7676 16.3026 22.83 18.8205 22.049C20.4949 21.5296 21.1397 20.8604 21.1397 20.8604C23.6721 19.0033 23.8077 16.4888 23.2235 14.6403C22.5679 12.5632 20.8813 10.9022 18.9851 9.91142C16.0826 8.3937 13.216 7.92729 12.6029 7.89062C12.3275 8.44059 11.2983 11.1563 11.1611 14.4288C11.0715 16.5664 11.6667 18.8575 13.1367 20.464Z" stroke="white" stroke-width="3" stroke-linecap="round" stroke-linejoin="round"/>
<path d="M16.5625 15.1055C19.4087 17.4861 21.6154 20.4142 22.1456 24.7754" stroke="white" stroke-width="3" stroke-linecap="round" stroke-linejoin="round"/>
</svg>
