<svg width="48" height="48" viewBox="0 0 48 48" fill="none" xmlns="http://www.w3.org/2000/svg">
<g opacity="0.4">
<path d="M31.3745 38.6289C29.3925 39.6709 28.7793 43.0017 28.7793 43.0017" stroke="white" stroke-width="3" stroke-linecap="round"/>
<path d="M24.0215 5.0069C27.7745 4.92338 31.3371 5.57846 34.2707 8.05266C38.0367 11.2289 40.2395 15.115 39.0989 20.2826C38.4909 23.0372 40.5021 26.166 41.9271 28.0802C42.5545 28.923 42.2383 30.052 41.2579 30.43L39.4029 31.1454C38.8677 31.3518 38.4769 31.8196 38.3687 32.3828L37.7481 37.6692C37.5423 39.041 36.3761 39.6928 35.0729 39.4184L29.5039 38.1628C27.6829 37.7614 27.7627 36.1142 27.2871 34.3904" stroke="white" stroke-width="3" stroke-linecap="round"/>
<path d="M9.61719 25.7266C12.5276 30.936 13.8719 36.8616 11.3867 42.5292" stroke="white" stroke-width="3" stroke-linecap="round"/>
</g>
<path d="M14.7267 9.21376L13.469 6.69996C13.3876 6.54378 13.2613 6.41586 13.1035 6.33444C12.6864 6.1168 12.1714 6.28128 11.9537 6.69996L10.6944 9.21542C10.5681 9.46296 10.3305 9.6341 10.0547 9.67232L7.24018 10.0777C7.05244 10.101 6.87964 10.189 6.74838 10.3253C6.42938 10.6559 6.43936 11.1842 6.77164 11.5032L8.8086 13.4588C9.00798 13.6498 9.09936 13.9273 9.05284 14.1998L8.571 16.9611C8.5411 17.1439 8.571 17.3283 8.6574 17.4928C8.87672 17.9048 9.38844 18.061 9.80048 17.8434L12.3176 16.5375C12.5652 16.4112 12.8592 16.4112 13.1068 16.5375L15.6206 17.8417C15.7834 17.9281 15.9695 17.958 16.1506 17.9298C16.6125 17.855 16.9265 17.4214 16.8517 16.9611L16.3699 14.1998C16.3217 13.9273 16.4131 13.6498 16.6141 13.4588L18.6494 11.5032C18.7857 11.372 18.872 11.1992 18.897 11.0114C18.9584 10.5545 18.6361 10.1359 18.1809 10.076L15.3647 9.67232C15.0906 9.63244 14.8513 9.4613 14.7267 9.21376Z" stroke="white" stroke-width="3" stroke-linecap="round" stroke-linejoin="round"/>
</svg>
