<svg width="48" height="48" viewBox="0 0 48 48" fill="none" xmlns="http://www.w3.org/2000/svg">
<g opacity="0.4">
<path d="M31.3745 38.6289C29.3925 39.6709 28.7793 43.0017 28.7793 43.0017" stroke="white" stroke-width="3" stroke-linecap="round"/>
<path d="M24.0215 5.0069C27.7745 4.92338 31.3371 5.57846 34.2707 8.05266C38.0367 11.2289 40.2395 15.115 39.0989 20.2826C38.4909 23.0372 40.5021 26.166 41.9271 28.0802C42.5545 28.923 42.2383 30.052 41.2579 30.43L39.4029 31.1454C38.8677 31.3518 38.4769 31.8196 38.3687 32.3828L37.7481 37.6692C37.5423 39.041 36.3761 39.6928 35.0729 39.4184L29.5039 38.1628C27.6829 37.7614 27.7627 36.1142 27.2871 34.3904" stroke="white" stroke-width="3" stroke-linecap="round"/>
<path d="M9.61719 25.7266C12.5276 30.936 13.8719 36.8616 11.3867 42.5292" stroke="white" stroke-width="3" stroke-linecap="round"/>
</g>
<path fill-rule="evenodd" clip-rule="evenodd" d="M13.8198 5.36348L7.91897 13.4914C7.49791 14.0711 7.91211 14.8832 8.62817 14.8832H13.4554V19.9866C13.4554 20.8356 14.5436 21.1898 15.0427 20.5012L20.9436 12.374C21.3646 11.7943 20.9504 10.9814 20.2344 10.9814H15.4063V5.87888C15.4063 5.02904 14.3189 4.67572 13.8198 5.36348Z" stroke="white" stroke-width="3" stroke-linecap="round" stroke-linejoin="round"/>
</svg>
