<svg width="48" height="48" viewBox="0 0 48 48" fill="none" xmlns="http://www.w3.org/2000/svg">
<path d="M10.9622 7.38281L15.9806 7.38281C17.7346 7.38281 18.8262 8.62103 18.8262 10.3733L18.8262 15.1016C18.8262 16.8539 17.7346 18.0921 15.98 18.0921L10.9622 18.0921C9.20817 18.0921 8.11697 16.8539 8.11697 15.1016L8.11697 10.3733C8.11697 8.62103 9.21337 7.38281 10.9622 7.38281Z" stroke="white" stroke-width="3" stroke-linecap="round" stroke-linejoin="round"/>
<path d="M15.918 5L15.918 7.37294" stroke="white" stroke-width="3" stroke-linecap="round" stroke-linejoin="round"/>
<path d="M11.0488 5L11.0488 7.37294" stroke="white" stroke-width="3" stroke-linecap="round" stroke-linejoin="round"/>
<path d="M15.918 18.0938L15.918 20.4666" stroke="white" stroke-width="3" stroke-linecap="round" stroke-linejoin="round"/>
<path d="M11.0488 18.0938L11.0488 20.4666" stroke="white" stroke-width="3" stroke-linecap="round" stroke-linejoin="round"/>
<path d="M21.2168 15.168L18.844 15.168" stroke="white" stroke-width="3" stroke-linecap="round" stroke-linejoin="round"/>
<path d="M21.2168 10.3008L18.8438 10.3008" stroke="white" stroke-width="3" stroke-linecap="round" stroke-linejoin="round"/>
<path d="M8.12305 15.168L5.75005 15.168" stroke="white" stroke-width="3" stroke-linecap="round" stroke-linejoin="round"/>
<path d="M8.12305 10.3008L5.75024 10.3008" stroke="white" stroke-width="3" stroke-linecap="round" stroke-linejoin="round"/>
<g opacity="0.4">
<path d="M29.375 38.6289C27.393 39.6709 26.7798 43.0017 26.7798 43.0017" stroke="white" stroke-width="3" stroke-linecap="round"/>
<path d="M25.284 34.3886C25.7598 36.1124 25.68 37.7596 27.501 38.161L33.0698 39.4166C34.3732 39.691 35.5394 39.0392 35.7452 37.6672L36.3657 32.381C36.4738 31.8176 36.8648 31.35 37.4 31.1436L39.255 30.4282C40.2353 30.0502 40.5515 28.921 39.9241 28.0784C38.4991 26.1642 36.488 23.0354 37.0959 20.2808C38.2365 15.1132 36.0337 11.2271 32.2676 8.05082C30.2008 6.30766 27.8218 5.46746 25.284 5.15234" stroke="white" stroke-width="3" stroke-linecap="round"/>
<path d="M7.61711 25.7266C10.5275 30.936 11.8719 36.8616 9.38671 42.529" stroke="white" stroke-width="3" stroke-linecap="round"/>
</g>
</svg>
