<svg width="120" height="120" viewBox="0 0 120 120" fill="none" xmlns="http://www.w3.org/2000/svg">
<path opacity="0.4" d="M36.8085 19.4727H86.5226C97.6486 19.4727 106.668 28.4921 106.668 39.6181V80.4C106.668 91.526 97.6486 100.546 86.5226 100.546H36.8085C25.6875 100.546 16.668 91.526 16.668 80.4V39.6181C16.668 28.4921 25.6875 19.4727 36.8085 19.4727Z" stroke="#ACB6BE" stroke-width="7" stroke-linecap="round" stroke-linejoin="round"/>
<path d="M52.8281 82.4008H87.9136M52.8281 77.6953V85.9458" stroke="#ACB6BE" stroke-width="7" stroke-linecap="round" stroke-linejoin="round"/>
<path d="M35.4297 82.4023H41.3356" stroke="#ACB6BE" stroke-width="7" stroke-linecap="round" stroke-linejoin="round"/>
<path fill-rule="evenodd" clip-rule="evenodd" d="M70.5779 53.314C67.6444 55.97 63.9764 58.3635 59.9384 59.9935C56.5039 61.346 53.6289 59.6575 53.2054 56.2715C52.6899 51.2805 52.7044 46.5031 53.2054 42.0469C53.6674 38.5247 56.8349 37.0312 59.9384 38.3398C63.9129 39.9647 67.4789 42.1734 70.5779 45.0144C73.2244 47.4128 73.2874 50.823 70.5779 53.314Z" stroke="#ACB6BE" stroke-width="7" stroke-linecap="round" stroke-linejoin="round"/>
</svg>
