<svg width="64" height="64" viewBox="0 0 64 64" fill="none" xmlns="http://www.w3.org/2000/svg">
<path opacity="0.4" d="M19.6323 10.3857H46.1464C52.0803 10.3857 56.8907 15.1961 56.8907 21.13V42.8803C56.8907 48.8142 52.0803 53.6246 46.1464 53.6246H19.6323C13.701 53.6246 8.89062 48.8142 8.89062 42.8803V21.13C8.89062 15.1961 13.701 10.3857 19.6323 10.3857Z" stroke="#ACB6BE" stroke-width="4" stroke-linecap="round" stroke-linejoin="round"/>
<path d="M28.1758 43.9471H46.888M28.1758 41.4375V45.8378" stroke="#ACB6BE" stroke-width="4" stroke-linecap="round" stroke-linejoin="round"/>
<path d="M18.8945 43.9482H22.0444" stroke="#ACB6BE" stroke-width="4" stroke-linecap="round" stroke-linejoin="round"/>
<path fill-rule="evenodd" clip-rule="evenodd" d="M37.6405 28.4345C36.076 29.851 34.1197 31.1275 31.9661 31.9969C30.1344 32.7182 28.6011 31.8177 28.3752 30.0118C28.1003 27.3499 28.108 24.802 28.3752 22.4253C28.6216 20.5468 30.3109 19.7503 31.9661 20.4482C34.0859 21.3148 35.9877 22.4928 37.6405 24.008C39.052 25.2872 39.0856 27.1059 37.6405 28.4345Z" stroke="#ACB6BE" stroke-width="4" stroke-linecap="round" stroke-linejoin="round"/>
</svg>
