<svg width="64" height="64" viewBox="0 0 64 64" fill="none" xmlns="http://www.w3.org/2000/svg">
<path d="M56.1333 47.158V33.4068C56.1333 28.529 52.1768 24.5723 47.2989 24.5723H19.3684C14.488 24.5723 10.5312 28.529 10.5312 33.4068V47.158C10.5312 52.0383 14.488 55.9951 19.3684 55.9951H47.2989C52.1768 55.9951 56.1333 52.0383 56.1333 47.158Z" stroke="#ACB6BE" stroke-width="4" stroke-linecap="round" stroke-linejoin="round"/>
<path opacity="0.4" fill-rule="evenodd" clip-rule="evenodd" d="M38.6372 42.5371C37.026 43.9952 35.0153 45.308 32.7996 46.2005C30.9132 46.9427 29.3356 46.0163 29.1046 44.1587C28.822 41.4187 28.827 38.7981 29.1046 36.3515C29.3564 34.4213 31.0974 33.6013 32.7996 34.32C34.9788 35.2125 36.9353 36.4243 38.6372 37.9835C40.0902 39.2989 40.1238 41.1696 38.6372 42.5371Z" stroke="#ACB6BE" stroke-width="4" stroke-linecap="round" stroke-linejoin="round"/>
<path d="M17.8164 16.3027H48.8475" stroke="#ACB6BE" stroke-width="4" stroke-linecap="round" stroke-linejoin="round"/>
<path d="M24.582 8H42.0798" stroke="#ACB6BE" stroke-width="4" stroke-linecap="round" stroke-linejoin="round"/>
</svg>
